<svg xmlns="http://www.w3.org/2000/svg" viewBox="0 0 10.28 11.77"><defs><style>.cls-1{fill:none;stroke:#221e20;stroke-miterlimit:10;stroke-width:0.3px;}.cls-2{fill:#221e20;}</style></defs><g id="Layer_2" data-name="Layer 2"><g id="Layer_1-2" data-name="Layer 1"><polygon class="cls-1" points="9.99 8.68 5.14 11.48 0.29 8.68 0.29 3.09 5.14 0.29 9.99 3.09 9.99 8.68"/><path class="cls-2" d="M5.44.29a.29.29,0,0,1-.29.29h0A.29.29,0,0,1,4.86.29h0A.29.29,0,0,1,5.15,0h0a.29.29,0,0,1,.29.29Z"/><path class="cls-2" d="M5.43,11.48a.29.29,0,0,1-.29.29h0a.29.29,0,0,1-.29-.29h0a.29.29,0,0,1,.29-.29h0a.3.3,0,0,1,.29.29Z"/><path class="cls-2" d="M10.28,8.68A.29.29,0,0,1,10,9h0a.29.29,0,0,1-.29-.29h0A.29.29,0,0,1,10,8.39h0a.3.3,0,0,1,.29.29Z"/><path class="cls-2" d="M10.28,3.09a.29.29,0,0,1-.29.29h0a.29.29,0,0,1-.29-.29h0A.29.29,0,0,1,10,2.8h0a.29.29,0,0,1,.29.29Z"/><path class="cls-2" d="M.58,3.09a.29.29,0,0,1-.29.29h0A.29.29,0,0,1,0,3.09H0A.29.29,0,0,1,.29,2.8h0a.29.29,0,0,1,.29.29Z"/><path class="cls-2" d="M.58,8.68A.29.29,0,0,1,.29,9h0A.29.29,0,0,1,0,8.68H0a.29.29,0,0,1,.29-.29h0a.3.3,0,0,1,.29.29Z"/><line class="cls-1" x1="0.29" y1="3.09" x2="9.99" y2="3.09"/><line class="cls-1" x1="0.29" y1="8.68" x2="9.99" y2="8.68"/><line class="cls-1" x1="5.14" y1="0.29" x2="5.14" y2="11.48"/><path class="cls-2" d="M5.44,3.09a.29.29,0,0,1-.29.29h0a.29.29,0,0,1-.29-.29h0a.29.29,0,0,1,.29-.29h0a.29.29,0,0,1,.29.29Z"/><path class="cls-2" d="M5.43,8.68A.29.29,0,0,1,5.14,9h0a.29.29,0,0,1-.29-.29h0a.29.29,0,0,1,.29-.29h0a.3.3,0,0,1,.29.29Z"/><line class="cls-1" x1="0.29" y1="8.68" x2="5.15" y2="3.09"/><line class="cls-1" x1="9.99" y1="8.68" x2="5.15" y2="3.09"/><line class="cls-1" x1="0.29" y1="3.09" x2="5.14" y2="8.68"/><line class="cls-1" x1="9.99" y1="3.09" x2="5.14" y2="8.68"/><path class="cls-2" d="M7.86,5.89a.29.29,0,0,1-.29.29h0a.29.29,0,0,1-.29-.29h0a.29.29,0,0,1,.29-.29h0a.29.29,0,0,1,.29.29Z"/><path class="cls-2" d="M3,5.89a.29.29,0,0,1-.29.29h0a.29.29,0,0,1-.29-.29h0a.29.29,0,0,1,.29-.29h0A.29.29,0,0,1,3,5.89Z"/><line class="cls-1" x1="2.72" y1="5.89" x2="7.57" y2="5.89"/><path class="cls-2" d="M5.44,5.89a.29.29,0,0,1-.29.29h0a.29.29,0,0,1-.29-.29h0a.29.29,0,0,1,.29-.29h0a.29.29,0,0,1,.29.29Z"/></g></g></svg>